# xmcd CD database file
#
# Track frame offsets:
#	150
#	18237
#	33241
#	52210
#	69952
#	85566
#	106065
#	126104
#	152751
#	164643
#	187117
#
# Disc length: 2728 seconds
#
# Revision: 1
# Processed by: cddbd v1.5.2PL0 Copyright (c) Steve Scherf et al.
# Submitted via: CDex 1.51
#
DISCID=880aa60b
DTITLE=Spencer BOHREN - Solitaire
DYEAR=2002
DGENRE=Blues
TTITLE0=Down The Road
TTITLE1=Born In A Biscayne
TTITLE2=In-Between Friends
TTITLE3=Hard Time Killin
TTITLE4=C'mon Down
TTITLE5=Witch Doctor
TTITLE6=Broek Down Engine
TTITLE7=Been 'round The World
TTITLE8=Long Gone Lonesome Blues
TTITLE9=No Expectations
TTITLE10=Dirt Road Blues
EXTD=YEAR: 2002
EXTT0=
EXTT1=
EXTT2=
EXTT3=
EXTT4=
EXTT5=
EXTT6=
EXTT7=
EXTT8=
EXTT9=
EXTT10=
PLAYORDER=
